<?xml version="1.0" encoding="utf-8"?>
<!-- Generator: Adobe Illustrator 17.1.0, SVG Export Plug-In . SVG Version: 6.00 Build 0)  -->
<!DOCTYPE svg PUBLIC "-//W3C//DTD SVG 1.1//EN" "http://www.w3.org/Graphics/SVG/1.1/DTD/svg11.dtd">
<svg version="1.1" id="Layer_3" xmlns="http://www.w3.org/2000/svg" xmlns:xlink="http://www.w3.org/1999/xlink" x="0px" y="0px"
	 width="90px" height="75px" viewBox="0 0 90 75" enable-background="new 0 0 90 75" xml:space="preserve">
<g>
	<path fill="#FFFFFF" d="M88.4,42L72.7,4.5C71.4,2,68.1,0,65.3,0H55.1L57,20.3h13.5L45,41.5L19.5,20.3H33L34.9,0H24.7
		c-2.8,0-6.1,2-7.3,4.5L1.6,42c-1.2,2.5-1.9,6.8-1.4,9.6L3.5,70c0.5,2.8,3.1,5,5.9,5h71.1c2.8,0,5.4-2.3,5.9-5l3.4-18.4
		C90.3,48.8,89.7,44.5,88.4,42z M81.6,55.1l-1.3,7.5c-0.4,2.9-3,5.2-5.8,5.2H15.5c-2.8,0-5.4-2.4-5.8-5.2l-1.3-7.5
		c-0.4-2.9,1.6-5.2,4.4-5.2h64.5C80,49.9,82,52.2,81.6,55.1z"/>
</g>
</svg>
