<svg xmlns="http://www.w3.org/2000/svg" width="522.1" height="102" viewBox="0 0 522.1 102"><path fill="#12326E" d="M143.6 45.2c.1-1.3-.3-2.4-1.4-3.1s-2.9-1.2-5.8-1.2c-4.2 0-6.8 1.2-7.3 3.7-.3 1.3.5 2 2.3 2.3 3 .5 12.3 1.9 15.8 2.6 6.7 1.2 10.3 4 8.9 10.6-2.7 12.7-19.2 12.8-24.3 12.8-12.7 0-21.4-2.3-19.9-12.7h14.8c-.2 1.4.1 2.6 1.2 3.4 1 .8 3 1.3 6.2 1.3 3.1 0 6.7-.7 7.4-3.9.4-2-1-2.7-5.2-3.4l-12.1-1.9c-7.4-1.2-9.6-5-8.4-10.6 1-4.9 5.6-11.9 22-11.9 13.6 0 21.1 3.3 20 12.1h-14.2zM193.5 56h-18.9l-3.4 15.7h-12.5l8-37.4h12.5l-2.8 13.4h18.9l2.8-13.4h12.5l-8 37.4h-12.5l3.4-15.7zM218.3 34.3h12.5l-8 37.4h-12.5l8-37.4zM238.5 34.3h18.2l3.3 24.7h.1l13.8-24.7h18.2l-8 37.4h-11.7l6-28h-.1l-15.8 28h-10.3l-3.9-28h-.1l-6 28h-11.7l8-37.4z"/><path fill="#D2D4D3" d="M299.7 34.3h27.7c10.2 0 12.6 5.4 11.1 12.5-1.3 6.2-5.8 12.5-15.8 12.5h-15.8l-2.7 12.5h-12.5l8-37.5zm8.9 17.2h11.1c3.5 0 5.3-1.4 6-4.7.7-3.3-.5-4.7-4-4.7h-11.1l-2 9.4zM346.4 34.3h30c9.2 0 11.6 4.2 10.3 10.4-1 5-4.2 7.7-7.8 8.5l-.1.1c2.2.8 3.7 2.7 3.1 6.7-1 7.4-1.3 9.8-.1 11.6h-13.7c-.3-1.6.1-3.8.5-5.6 1.2-5.9-.5-6.9-3.6-6.9h-11.4l-2.7 12.5h-12.5l8-37.3zm8.9 16.5h12c3 0 5-1.6 5.5-4.1.5-2.5-.7-4-3.8-4h-12l-1.7 8.1zM394.9 34.3h37.5l-1.7 8.1h-25l-1.4 6.8h23.4l-1.7 7.8h-23.4l-1.4 6.8h25l-1.7 8.1h-37.5l7.9-37.6zM461.2 45.2c.1-1.3-.3-2.4-1.4-3.1-1.1-.8-2.9-1.2-5.8-1.2-4.2 0-6.8 1.2-7.3 3.7-.3 1.3.5 2 2.3 2.3 3 .5 12.3 1.9 15.8 2.6 6.7 1.2 10.3 4 8.9 10.6-2.7 12.7-19.2 12.8-24.3 12.8-12.7 0-21.4-2.3-19.9-12.7h14.8c-.2 1.4.1 2.6 1.2 3.4 1 .8 3 1.3 6.2 1.3 3.1 0 6.7-.7 7.4-3.9.4-2-1-2.7-5.2-3.4l-12.1-1.9c-7.4-1.2-9.6-5-8.4-10.6 1-4.9 5.6-11.9 22-11.9 13.6 0 21.1 3.3 20 12.1h-14.2zM507.8 45.2c.1-1.3-.3-2.4-1.4-3.1-1.1-.8-2.9-1.2-5.8-1.2-4.2 0-6.8 1.2-7.3 3.7-.3 1.3.5 2 2.3 2.3 3 .5 12.3 1.9 15.8 2.6 6.7 1.2 10.3 4 8.9 10.6-2.7 12.7-19.2 12.8-24.3 12.8-12.7 0-21.4-2.3-19.9-12.7h14.9c-.2 1.4.1 2.6 1.2 3.4 1 .8 3 1.3 6.2 1.3 3.1 0 6.7-.7 7.4-3.9.4-2-1-2.7-5.2-3.4l-12.1-1.9c-7.4-1.2-9.6-5-8.4-10.6 1-4.9 5.6-11.9 22-11.9 13.6 0 21.1 3.3 20 12.1h-14.3z"/><path fill="#12326E" d="M51 9c23.2 0 42 18.8 42 42s-18.8 42-42 42-42-18.8-42-42 18.8-42 42-42m0-9c-28.2 0-51 22.8-51 51s22.8 51 51 51 51-22.8 51-51-22.8-51-51-51zM75.9 36.5h-21.5l-.5 2.5h4.3l-4.6 1.4-.4 2.1h4.3l-4.6 1.4c.1-6.1-5.6-8.3-15.6-8.3-12.7 0-16.2 5.4-17 9.2-.9 4.3.8 7.3 6.5 8.2l9.4 1.5c3.3.5 4.3 1.1 4 2.6-.5 2.5-3.3 3-5.7 3-2.5 0-4-.4-4.8-1-.9-.6-1-1.5-.9-2.6h-11.5c-1.2 8.1 5.6 9.8 15.4 9.8 3.2 0 11.9-.1 16.4-5l-.9 4.1h9.7l2.1-9.7h12.2c7.8 0 11.3-4.9 12.3-9.7 1.2-5.3-.7-9.5-8.6-9.5zm-20.1 13.8l-4.6 1.5c-1-1.9-3.3-2.9-6.5-3.5-2.7-.5-9.9-1.6-12.3-2-1.4-.2-2-.8-1.8-1.8.4-1.9 2.4-2.8 5.6-2.8 2.2 0 3.7.3 4.5.9.9.6 1.1 1.4 1.1 2.4h10.8l-.3 1.4h4.2l-4.5 1.5-.5 2.4h4.3zm18.7-4.1c-.5 2.6-2 3.7-4.6 3.7h-8.6l1.5-7.3h8.6c2.7-.1 3.7 1 3.1 3.6z"/></svg>