<?xml version="1.0" encoding="utf-8"?>
<!-- Generator: Adobe Illustrator 17.1.0, SVG Export Plug-In . SVG Version: 6.00 Build 0)  -->
<!DOCTYPE svg PUBLIC "-//W3C//DTD SVG 1.1//EN" "http://www.w3.org/Graphics/SVG/1.1/DTD/svg11.dtd">
<svg version="1.1" id="Layer_1" xmlns="http://www.w3.org/2000/svg" xmlns:xlink="http://www.w3.org/1999/xlink" x="0px" y="0px"
	 width="167.7px" height="147.9px" viewBox="0 0 167.7 147.9" enable-background="new 0 0 167.7 147.9" xml:space="preserve">
<g>
	<path d="M93.5,145.9L93.5,145.9c-19.2,0-37.3-7.5-50.9-21.1C29,111.2,21.5,93.2,21.5,73.9C21.5,34.3,53.8,2,93.5,2
		c19.2,0,37.3,7.5,50.9,21.1c13.6,13.6,21.1,31.7,21.1,50.9C165.4,113.7,133.1,145.9,93.5,145.9z M93.5,12c-34.2,0-62,27.8-62,61.9
		c0,16.6,6.4,32.1,18.1,43.8c11.7,11.7,27.3,18.2,43.8,18.2l0,5v-5c34.2,0,61.9-27.8,62-61.9c0-16.5-6.4-32.1-18.1-43.8
		S110,12,93.5,12z"/>
</g>
<g>
	<path fill="#9D9D9C" d="M93.5,108.7L93.5,108.7c-9.3,0-18-3.6-24.6-10.2C62.3,92,58.7,83.2,58.7,73.9c0-19.2,15.6-34.7,34.8-34.7
		c9.3,0,18,3.6,24.6,10.2c6.6,6.6,10.2,15.3,10.2,24.6C128.2,93.1,112.6,108.7,93.5,108.7z M93.5,43.2c-17,0-30.8,13.8-30.8,30.7
		c0,8.2,3.2,15.9,9,21.7s13.5,9,21.7,9l0,2v-2c17,0,30.7-13.8,30.8-30.7c0-8.2-3.2-15.9-9-21.7C109.4,46.4,101.7,43.2,93.5,43.2z"/>
</g>
<g>
	<path d="M11.7,75.1H6.7l-1.3,2.2H2.3l7-10.7h3.5l2.4,10.7h-3.1L11.7,75.1z M10.5,68.9l-2.6,4.2h3.4L10.5,68.9z"/>
</g>
<g>
	<path fill="#9D9D9C" d="M135,66.6h8c1.6,0,2.9,0.7,2.4,2.7c-0.2,0.8-0.8,1.8-1.9,2.1v0c1.2,0.2,1.6,1.4,1.4,2.6
		c-0.3,1.4-1.4,3.2-4.6,3.2h-7.6L135,66.6z M136.1,75.3h4.3c0.9,0,1.4-0.6,1.5-1.3c0.2-0.8-0.3-1.3-1.3-1.3h-4L136.1,75.3z
		 M137,70.8h4c0.7,0,1.2-0.4,1.3-1.2c0.1-0.7-0.1-1.2-1.3-1.2h-3.6L137,70.8z"/>
</g>
</svg>
