<?xml version="1.0" encoding="utf-8"?>
<!-- Generator: Adobe Illustrator 18.0.0, SVG Export Plug-In . SVG Version: 6.00 Build 0)  -->
<!DOCTYPE svg PUBLIC "-//W3C//DTD SVG 1.1//EN" "http://www.w3.org/Graphics/SVG/1.1/DTD/svg11.dtd">
<svg version="1.1" id="Layer_1" xmlns="http://www.w3.org/2000/svg" xmlns:xlink="http://www.w3.org/1999/xlink" x="0px" y="0px"
	 width="167.7px" height="147.9px" viewBox="0 0 167.7 147.9" enable-background="new 0 0 167.7 147.9" xml:space="preserve">
<g>
	<path d="M82.5,10.3h-5l-1.3,2.2h-3.1l7-10.7h3.5L86,12.5h-3.1L82.5,10.3z M81.3,4.1l-2.6,4.2h3.4L81.3,4.1z"/>
</g>
<g>
	<path d="M151,68.7h8c1.6,0,2.9,0.7,2.4,2.7c-0.2,0.8-0.8,1.8-1.9,2.1l0,0c1.2,0.2,1.6,1.4,1.4,2.6c-0.3,1.4-1.4,3.2-4.6,3.2h-7.6
		L151,68.7z M152.1,77.4h4.3c0.9,0,1.4-0.6,1.5-1.3c0.2-0.8-0.3-1.3-1.3-1.3h-4L152.1,77.4z M153,72.9h4c0.7,0,1.2-0.4,1.3-1.2
		c0.1-0.7-0.1-1.2-1.3-1.2h-3.6L153,72.9z"/>
</g>
<path d="M134.8,25.5V136H24.2V25.5H134.8 M144.8,15.5H14.2V146h130.5V15.5L144.8,15.5z"/>
</svg>
