<?xml version="1.0" encoding="utf-8"?>
<!-- Generator: Adobe Illustrator 17.1.0, SVG Export Plug-In . SVG Version: 6.00 Build 0)  -->
<!DOCTYPE svg PUBLIC "-//W3C//DTD SVG 1.1//EN" "http://www.w3.org/Graphics/SVG/1.1/DTD/svg11.dtd">
<svg version="1.1" id="Layer_1" xmlns="http://www.w3.org/2000/svg" xmlns:xlink="http://www.w3.org/1999/xlink" x="0px" y="0px"
	 width="522.1px" height="102px" viewBox="0 0 522.1 102" enable-background="new 0 0 522.1 102" xml:space="preserve">
<g>
	<g>
		<g>
			<path fill="#FFFFFF" d="M143.6,45.2c0.1-1.3-0.3-2.4-1.4-3.1s-2.9-1.2-5.8-1.2c-4.2,0-6.8,1.2-7.3,3.7c-0.3,1.3,0.5,2,2.3,2.3
				c3,0.5,12.3,1.9,15.8,2.6c6.7,1.2,10.3,4,8.9,10.6c-2.7,12.7-19.2,12.8-24.3,12.8c-12.7,0-21.4-2.3-19.9-12.7h14.8
				c-0.2,1.4,0.1,2.6,1.2,3.4c1,0.8,3,1.3,6.2,1.3c3.1,0,6.7-0.7,7.4-3.9c0.4-2-1-2.7-5.2-3.4l-12.1-1.9c-7.4-1.2-9.6-5-8.4-10.6
				c1-4.9,5.6-11.9,22-11.9c13.6,0,21.1,3.3,20,12.1H143.6z"/>
		</g>
		<g>
			<path fill="#FFFFFF" d="M193.5,56h-18.9l-3.4,15.7h-12.5l8-37.4h12.5l-2.8,13.4h18.9l2.8-13.4h12.5l-8,37.4h-12.5L193.5,56z"/>
		</g>
		<g>
			<path fill="#FFFFFF" d="M218.3,34.3h12.5l-8,37.4h-12.5L218.3,34.3z"/>
		</g>
		<g>
			<path fill="#FFFFFF" d="M238.5,34.3h18.2L260,59h0.1l13.8-24.7h18.2l-8,37.4h-11.7l6-28h-0.1l-15.8,28h-10.3l-3.9-28h-0.1l-6,28
				h-11.7L238.5,34.3z"/>
		</g>
		<g>
			<path fill="#FFFFFF" d="M299.7,34.3h27.7c10.2,0,12.6,5.4,11.1,12.5c-1.3,6.2-5.8,12.5-15.8,12.5h-15.8l-2.7,12.5h-12.5
				L299.7,34.3z M308.6,51.5h11.1c3.5,0,5.3-1.4,6-4.7c0.7-3.3-0.5-4.7-4-4.7h-11.1L308.6,51.5z"/>
		</g>
		<g>
			<path fill="#FFFFFF" d="M346.4,34.3h30c9.2,0,11.6,4.2,10.3,10.4c-1,5-4.2,7.7-7.8,8.5l-0.1,0.1c2.2,0.8,3.7,2.7,3.1,6.7
				c-1,7.4-1.3,9.8-0.1,11.6h-13.7c-0.3-1.6,0.1-3.8,0.5-5.6c1.2-5.9-0.5-6.9-3.6-6.9h-11.4l-2.7,12.5h-12.5L346.4,34.3z
				 M355.3,50.8h12c3,0,5-1.6,5.5-4.1c0.5-2.5-0.7-4-3.8-4h-12L355.3,50.8z"/>
		</g>
		<g>
			<path fill="#FFFFFF" d="M394.9,34.3h37.5l-1.7,8.1h-25l-1.4,6.8h23.4l-1.7,7.8h-23.4l-1.4,6.8h25l-1.7,8.1h-37.5L394.9,34.3z"/>
		</g>
		<g>
			<path fill="#FFFFFF" d="M461.2,45.2c0.1-1.3-0.3-2.4-1.4-3.1c-1.1-0.8-2.9-1.2-5.8-1.2c-4.2,0-6.8,1.2-7.3,3.7
				c-0.3,1.3,0.5,2,2.3,2.3c3,0.5,12.3,1.9,15.8,2.6c6.7,1.2,10.3,4,8.9,10.6c-2.7,12.7-19.2,12.8-24.3,12.8
				c-12.7,0-21.4-2.3-19.9-12.7h14.8c-0.2,1.4,0.1,2.6,1.2,3.4c1,0.8,3,1.3,6.2,1.3c3.1,0,6.7-0.7,7.4-3.9c0.4-2-1-2.7-5.2-3.4
				l-12.1-1.9c-7.4-1.2-9.6-5-8.4-10.6c1-4.9,5.6-11.9,22-11.9c13.6,0,21.1,3.3,20,12.1H461.2z"/>
		</g>
		<g>
			<path fill="#FFFFFF" d="M507.8,45.2c0.1-1.3-0.3-2.4-1.4-3.1c-1.1-0.8-2.9-1.2-5.8-1.2c-4.2,0-6.8,1.2-7.3,3.7
				c-0.3,1.3,0.5,2,2.3,2.3c3,0.5,12.3,1.9,15.8,2.6c6.7,1.2,10.3,4,8.9,10.6c-2.7,12.7-19.2,12.8-24.3,12.8
				c-12.7,0-21.4-2.3-19.9-12.7H491c-0.2,1.4,0.1,2.6,1.2,3.4c1,0.8,3,1.3,6.2,1.3c3.1,0,6.7-0.7,7.4-3.9c0.4-2-1-2.7-5.2-3.4
				l-12.1-1.9c-7.4-1.2-9.6-5-8.4-10.6c1-4.9,5.6-11.9,22-11.9c13.6,0,21.1,3.3,20,12.1H507.8z"/>
		</g>
	</g>
	<g>
		<path fill="#FFFFFF" d="M51,9c23.2,0,42,18.8,42,42S74.2,93,51,93S9,74.2,9,51S27.8,9,51,9 M51,0C22.8,0,0,22.8,0,51
			c0,28.2,22.8,51,51,51s51-22.8,51-51C102,22.8,79.2,0,51,0L51,0z"/>
	</g>
	<g>
		<path fill="#FFFFFF" d="M75.9,36.5H54.4L53.9,39h4.3l-4.6,1.4l-0.4,2.1h4.3l-4.6,1.4c0.1-6.1-5.6-8.3-15.6-8.3
			c-12.7,0-16.2,5.4-17,9.2c-0.9,4.3,0.8,7.3,6.5,8.2l9.4,1.5c3.3,0.5,4.3,1.1,4,2.6c-0.5,2.5-3.3,3-5.7,3c-2.5,0-4-0.4-4.8-1
			c-0.9-0.6-1-1.5-0.9-2.6H17.3c-1.2,8.1,5.6,9.8,15.4,9.8c3.2,0,11.9-0.1,16.4-5l-0.9,4.1h9.7l2.1-9.7h12.2
			c7.8,0,11.3-4.9,12.3-9.7C85.7,40.7,83.8,36.5,75.9,36.5z M55.8,50.3l-4.6,1.5l0,0c-1-1.9-3.3-2.9-6.5-3.5
			c-2.7-0.5-9.9-1.6-12.3-2c-1.4-0.2-2-0.8-1.8-1.8c0.4-1.9,2.4-2.8,5.6-2.8c2.2,0,3.7,0.3,4.5,0.9c0.9,0.6,1.1,1.4,1.1,2.4h10.8
			l-0.3,1.4h4.2L52,47.9l-0.5,2.4H55.8z M74.5,46.2c-0.5,2.6-2,3.7-4.6,3.7h-8.6l1.5-7.3h8.6C74.1,42.5,75.1,43.6,74.5,46.2z"/>
	</g>
</g>
</svg>
